<svg width="70" height="70" viewBox="0 0 70 70" fill="none" xmlns="http://www.w3.org/2000/svg">
<rect opacity="0.7" width="70" height="70" rx="16" fill="url(#paint0_linear_1_1103)"/>
<path fill-rule="evenodd" clip-rule="evenodd" d="M47.3741 29.8784L41.382 34.9066L47.2665 40.5947C48.3475 41.6396 48.394 43.3451 47.3705 44.404L45.5171 46.3214C44.4935 47.3803 42.7875 47.3917 41.7065 46.3468L35.2204 40.0772L28.6067 45.6271C27.4551 46.5935 25.754 46.4624 24.8073 45.3342L23.0931 43.2915C22.1464 42.1633 22.3126 40.4653 23.4642 39.4989L29.437 34.4868L24.091 29.3194C23.0101 28.2745 22.9635 26.569 23.9871 25.5101L25.8405 23.5927C26.864 22.5338 28.5701 22.5224 29.6511 23.5673L35.5986 29.3163L42.2316 23.7502C43.3833 22.7837 45.0843 22.9149 46.031 24.043L47.7452 26.0858C48.6919 27.2139 48.5258 28.9119 47.3741 29.8784ZM27.9935 25.6739L33.5447 31.0398L31.4908 32.7633L26.1401 27.5912L27.9935 25.6739ZM39.3281 36.6302L37.2743 38.3537L43.3641 44.2402L45.2175 42.3229L39.3281 36.6302ZM43.7373 25.9681L45.4514 28.0108L27.1011 43.4096L25.3869 41.3669L43.7373 25.9681Z" fill="url(#paint1_linear_1_1103)"/>
<defs>
<linearGradient id="paint0_linear_1_1103" x1="124.375" y1="124.375" x2="-26.3848" y2="-81.4471" gradientUnits="userSpaceOnUse">
<stop stop-color="#32383E"/>
<stop offset="1" stop-color="#17191C"/>
</linearGradient>
<linearGradient id="paint1_linear_1_1103" x1="38.6347" y1="22.5525" x2="38.1893" y2="50.1564" gradientUnits="userSpaceOnUse">
<stop stop-color="#F35F84"/>
<stop offset="1" stop-color="#7580F2"/>
</linearGradient>
</defs>
</svg>
