<svg width="70" height="70" viewBox="0 0 70 70" fill="none" xmlns="http://www.w3.org/2000/svg">
<rect opacity="0.7" width="70" height="70" rx="16" fill="url(#paint0_linear_248_458)"/>
<path fill-rule="evenodd" clip-rule="evenodd" d="M47.2161 23H22.7163C21.2129 23 19.9941 24.1939 19.9941 25.6667V28.3333C19.9941 29.8061 21.2129 31 22.7163 31H47.2161C48.7195 31 49.9383 29.8061 49.9383 28.3333V25.6667C49.9383 24.1939 48.7195 23 47.2161 23ZM22.7163 33.6667H47.2161C48.7195 33.6667 49.9383 34.8606 49.9383 36.3333V39C49.9383 40.4728 48.7195 41.6667 47.2161 41.6667H22.7163C21.2129 41.6667 19.9941 40.4728 19.9941 39V36.3333C19.9941 34.8606 21.2129 33.6667 22.7163 33.6667ZM22.9886 36.3333V39H46.9439V36.3333H22.9886ZM22.9886 25.6667V28.3333H46.9439V25.6667H22.9886ZM37.9606 44.3333H19.9941V47H37.9606V44.3333Z" fill="url(#paint1_linear_248_458)"/>
<defs>
<linearGradient id="paint0_linear_248_458" x1="124.375" y1="124.375" x2="-26.3848" y2="-81.4471" gradientUnits="userSpaceOnUse">
<stop stop-color="#32383E"/>
<stop offset="1" stop-color="#17191C"/>
</linearGradient>
<linearGradient id="paint1_linear_248_458" x1="19.9941" y1="35" x2="49.9383" y2="35" gradientUnits="userSpaceOnUse">
<stop stop-color="#F35F84"/>
<stop offset="1" stop-color="#7580F2"/>
</linearGradient>
</defs>
</svg>
